<?xml version="1.0" encoding="UTF-8"?>
<svg version="1.1" xmlns="http://www.w3.org/2000/svg" width="512" height="512">
<path  d="M0 0 C1.08081848 0.00007553 2.16163696 0.00015106 3.27520752 0.00022888 C4.43574646 0.00539017 5.5962854 0.01055145 6.79199219 0.01586914 C7.98491882 0.01728409 9.17784546 0.01869904 10.40692139 0.02015686 C14.21759548 0.02575501 18.02821085 0.03830721 21.83886719 0.05102539 C24.42219967 0.05604063 27.00553308 0.06060349 29.58886719 0.06469727 C35.92222056 0.07572384 42.25553968 0.09246016 48.58886719 0.11352539 C48.30011719 1.30977539 48.01136719 2.50602539 47.71386719 3.73852539 C46.37369354 10.14157728 45.51401733 16.63747442 44.58886719 23.11352539 C31.71886719 23.11352539 18.84886719 23.11352539 5.58886719 23.11352539 C5.58886719 56.11352539 5.58886719 89.11352539 5.58886719 123.11352539 C64.98886719 123.11352539 124.38886719 123.11352539 185.58886719 123.11352539 C185.58886719 90.11352539 185.58886719 57.11352539 185.58886719 23.11352539 C172.71886719 23.11352539 159.84886719 23.11352539 146.58886719 23.11352539 C145.59886719 16.18352539 145.59886719 16.18352539 144.58886719 9.11352539 C143.95928554 6.10552416 143.30996013 3.10091044 142.58886719 0.11352539 C150.13274634 0.03723547 157.67652536 -0.01517529 165.22070312 -0.05126953 C167.78519407 -0.0663224 170.34965942 -0.08676922 172.9140625 -0.11279297 C176.60781181 -0.14932928 180.30121964 -0.16623654 183.99511719 -0.17944336 C185.13501099 -0.19492722 186.27490479 -0.21041107 187.44934082 -0.22636414 C195.18611543 -0.2279866 200.78709683 0.6634956 207.40136719 4.92602539 C212.64270588 10.16736408 212.94660448 15.24684805 213.01766968 22.3384552 C213.01473907 23.56666489 213.01180847 24.79487457 213.00878906 26.06030273 C213.01725861 27.36506058 213.02572815 28.66981842 213.03445435 30.01411438 C213.05661948 33.58242154 213.05960354 37.15049742 213.05770683 40.71886396 C213.05758689 43.7033109 213.06616073 46.68770926 213.07448435 49.67214262 C213.09370069 56.71643879 213.09660884 63.76061645 213.08984375 70.80493164 C213.08320515 78.05893708 213.1060636 85.31243376 213.14315748 92.56633604 C213.17390104 98.80605055 213.18520947 105.0456018 213.18132067 111.2853905 C213.17925782 115.00695865 213.18465967 118.72813086 213.20921326 122.44962692 C213.2357108 126.60274432 213.22171726 130.75479438 213.20410156 134.90795898 C213.21736481 136.13212021 213.23062805 137.35628143 213.24429321 138.61753845 C213.17468986 145.68565574 212.40876825 150.7333184 207.58886719 156.11352539 C201.94514139 160.6990526 197.24315693 161.24104864 190.14624023 161.22705078 C188.86528976 161.22697525 187.58433929 161.22689972 186.26457214 161.2268219 C184.87657634 161.22171604 183.48858094 161.21650006 182.10058594 161.21118164 C180.67283681 161.20931514 179.24508704 161.20789233 177.81733704 161.20689392 C174.07073174 161.20308704 170.32416558 161.19327246 166.57757568 161.18218994 C162.74996469 161.17193641 158.92234734 161.16738787 155.09472656 161.16235352 C147.59275358 161.15164846 140.09082087 161.13406657 132.58886719 161.11352539 C132.58886719 170.02352539 132.58886719 178.93352539 132.58886719 188.11352539 C135.80636719 188.04391602 135.80636719 188.04391602 139.08886719 187.97290039 C141.19056844 187.94161187 143.29224271 187.91737747 145.39404297 187.89379883 C146.84305636 187.87381244 148.29199044 187.84661342 149.74072266 187.81176758 C166.48746977 187.41935586 166.48746977 187.41935586 171.58886719 192.11352539 C175.58886719 198.11352539 175.58886719 198.11352539 175.58886719 214.11352539 C122.78886719 214.11352539 69.98886719 214.11352539 15.58886719 214.11352539 C15.58886719 198.11352539 15.58886719 198.11352539 19.58886719 192.11352539 C25.94404889 186.26565708 35.58120933 187.67092005 43.58886719 187.86352539 C45.04587388 187.88362203 46.50290734 187.90186721 47.95996094 187.91821289 C51.50414053 187.95853348 55.04454999 188.03684545 58.58886719 188.11352539 C58.58886719 179.20352539 58.58886719 170.29352539 58.58886719 161.11352539 C56.6867749 161.12399902 54.78468262 161.13447266 52.82495117 161.14526367 C46.52260129 161.1775851 40.2202711 161.20052726 33.91786098 161.21714973 C30.09875778 161.22756269 26.27974471 161.24167611 22.46069336 161.2644043 C18.77133873 161.28622185 15.08207051 161.29811272 11.39265633 161.30327988 C9.98892928 161.3069597 8.58520666 161.31414531 7.18151665 161.3249855 C5.20724013 161.33961823 3.23287566 161.34034331 1.25854492 161.34057617 C0.13713608 161.3450174 -0.98427277 161.34945862 -2.1396637 161.35403442 C-8.99539789 160.85002049 -13.5400393 158.9846189 -18.41113281 154.11352539 C-22.47396393 148.28034448 -21.84734396 141.99354702 -21.83105469 135.16674805 C-21.83952423 133.8619902 -21.84799377 132.55723236 -21.85671997 131.2129364 C-21.87888511 127.64462925 -21.88186917 124.07655336 -21.87997246 120.50818682 C-21.87985252 117.52373988 -21.88842636 114.53934153 -21.89674997 111.55490816 C-21.91596632 104.510612 -21.91887446 97.46643433 -21.91210938 90.42211914 C-21.90547078 83.1681137 -21.92832923 75.91461702 -21.96542311 68.66071475 C-21.99616666 62.42100023 -22.00747509 56.18144898 -22.00358629 49.94166028 C-22.00152344 46.22009213 -22.00692529 42.49891992 -22.03147888 38.77742386 C-22.05797642 34.62430646 -22.04398289 30.4722564 -22.02636719 26.3190918 C-22.03963043 25.09493057 -22.05289368 23.87076935 -22.06655884 22.60951233 C-21.99770641 15.6176501 -21.31344778 10.37404188 -16.41113281 5.11352539 C-11.26780783 1.1717883 -6.34881925 -0.01483369 0 0 Z " fill="#00000" transform="translate(160.4111328125,193.886474609375)"/>
<path d="M0 0 C10.40406256 10.40584286 18.96536475 24.13729011 20.45410156 39.0246582 C20.07910156 42.2746582 20.07910156 42.2746582 18.40004063 43.95397377 C15.57447287 45.56180717 13.81061367 45.65184175 10.56907654 45.65560913 C9.44883087 45.6640686 8.32858521 45.67252808 7.1743927 45.6812439 C5.94983871 45.6751712 4.72528473 45.66909851 3.46362305 45.6628418 C2.17063293 45.66809875 0.87764282 45.67335571 -0.45452881 45.67877197 C-3.99785466 45.69244407 -7.54091837 45.68714787 -11.08424878 45.67763472 C-14.79176366 45.67003912 -18.49925609 45.6770833 -22.20677185 45.68179321 C-28.43175284 45.68725039 -34.65662703 45.68005949 -40.8815918 45.66577148 C-48.08100642 45.6494378 -55.28016627 45.65473871 -62.47957474 45.6712507 C-68.65971578 45.68485816 -74.83978007 45.6867891 -81.01993126 45.67893469 C-84.71163386 45.67425499 -88.40321664 45.67364153 -92.09491158 45.68354416 C-96.20836647 45.69380759 -100.32138094 45.67958863 -104.43481445 45.6628418 C-105.66139267 45.66891449 -106.88797089 45.67498718 -108.15171814 45.6812439 C-109.26914398 45.67278442 -110.38656982 45.66432495 -111.53785706 45.65560913 C-112.51068414 45.65447805 -113.48351122 45.65334698 -114.48581791 45.65218163 C-116.92089844 45.2746582 -116.92089844 45.2746582 -118.72999477 43.93444252 C-120.72929481 41.14798133 -120.42147516 38.50826878 -119.92089844 35.2746582 C-115.75054914 17.59657375 -104.62674868 1.59549463 -89.37011719 -8.2722168 C-60.83219559 -25.20380664 -24.53603659 -23.36899996 0 0 Z " fill="#00000" transform="translate(305.9208984375,111.725341796875)"/>
<path d="M0 0 C12.6051134 10.45873187 21.52305613 24.12030942 24.9375 40.25 C24.41290984 46.77459016 24.41290984 46.77459016 22.9375 48.25 C21.17059179 48.35288728 19.39954745 48.38521244 17.62965393 48.39044189 C16.47843048 48.39615204 15.32720703 48.40186218 14.14109802 48.40774536 C12.86678421 48.40886322 11.5924704 48.40998108 10.27954102 48.41113281 C8.93290063 48.4157587 7.58626155 48.42078305 6.23962402 48.42617798 C2.57231105 48.43932518 -1.0949836 48.44575131 -4.76231647 48.45018864 C-7.05102522 48.45311532 -9.33972892 48.45721932 -11.62843513 48.46169281 C-18.78210981 48.47537317 -25.93577298 48.48503747 -33.08945984 48.4888947 C-41.36082585 48.49337849 -49.63202685 48.51093889 -57.90334266 48.5398953 C-64.28805809 48.56147497 -70.67272696 48.57159697 -77.05747849 48.57293582 C-80.87497131 48.57398643 -84.69230914 48.57994819 -88.50976372 48.59775543 C-92.09911873 48.61417246 -95.6882012 48.616423 -99.27758026 48.60761642 C-101.2285967 48.6064726 -103.17960385 48.62023868 -105.13056946 48.6343689 C-106.86163437 48.62601517 -106.86163437 48.62601517 -108.62767029 48.61749268 C-109.63481299 48.61895924 -110.6419557 48.6204258 -111.67961788 48.6219368 C-112.46596898 48.49919765 -113.25232008 48.37645851 -114.0625 48.25 C-116.28133759 44.92174362 -116.2732126 43.58964457 -115.66015625 39.7421875 C-111.02269963 20.40429648 -99.6322603 4.9408174 -83.0625 -5.75 C-55.96577282 -20.43405876 -24.66306829 -18.97738385 0 0 Z " fill="#00000" transform="translate(132.0625,452.75)"/>
<path d="M0 0 C11.62510101 9.31060126 21.69278525 25.6728654 24.0390625 40.5703125 C23.66170401 45.94767099 23.66170401 45.94767099 22.0390625 47.5703125 C20.27215429 47.67319978 18.50110995 47.70552494 16.73121643 47.71075439 C15.57999298 47.71646454 14.42876953 47.72217468 13.24266052 47.72805786 C11.96834671 47.72917572 10.6940329 47.73029358 9.38110352 47.73144531 C8.03446313 47.7360712 6.68782405 47.74109555 5.34118652 47.74649048 C1.67387355 47.75963768 -1.9934211 47.76606381 -5.66075397 47.77050114 C-7.94946272 47.77342782 -10.23816642 47.77753182 -12.52687263 47.78200531 C-19.68054731 47.79568567 -26.83421048 47.80534997 -33.98789734 47.8092072 C-42.25926335 47.81369099 -50.53046435 47.83125139 -58.80178016 47.8602078 C-65.18649559 47.88178747 -71.57116446 47.89190947 -77.95591599 47.89324832 C-81.77340881 47.89429893 -85.59074664 47.90026069 -89.40820122 47.91806793 C-92.99755623 47.93448496 -96.5866387 47.9367355 -100.17601776 47.92792892 C-102.1270342 47.9267851 -104.07804135 47.94055118 -106.02900696 47.9546814 C-107.76007187 47.94632767 -107.76007187 47.94632767 -109.52610779 47.93780518 C-110.53325049 47.93927174 -111.5403932 47.9407383 -112.57805538 47.9422493 C-113.36440648 47.81951015 -114.15075758 47.69677101 -114.9609375 47.5703125 C-117.25189654 44.13387394 -117.18695091 42.43131507 -116.625 38.42578125 C-114.22165987 28.09141871 -109.63479679 18.78853592 -102.9609375 10.5703125 C-102.31640625 9.74015625 -101.671875 8.91 -101.0078125 8.0546875 C-95.00347824 0.80500983 -88.00996593 -3.7646924 -79.9609375 -8.4296875 C-79.20554687 -8.873125 -78.45015625 -9.3165625 -77.671875 -9.7734375 C-52.39776542 -23.50258345 -22.01105364 -16.04789966 0 0 Z " fill="#00000" transform="translate(471.9609375,453.4296875)"/>
<path d="M0 0 C7.43092195 6.38956437 11.55363695 14.63256816 12.640625 24.37109375 C13.0022404 35.38830945 9.79471294 43.06753043 4.6953125 52.62890625 C0.35175795 61.07315033 0.35175795 61.07315033 -1.7421875 75.94140625 C-16.2621875 75.94140625 -30.7821875 75.94140625 -45.7421875 75.94140625 C-46.7321875 70.66140625 -47.7221875 65.38140625 -48.7421875 59.94140625 C-49.99880336 56.8404026 -51.10575594 54.27132548 -52.7421875 51.44140625 C-58.86200104 40.30610642 -61.83369688 30.81382849 -59.0859375 17.84375 C-55.37924722 6.48402247 -48.27494973 -0.66973866 -37.7421875 -6.05859375 C-25.04336514 -11.44597293 -10.62438564 -7.97661555 0 0 Z " fill="#00000" transform="translate(279.7421875,187.05859375)"/>
<path d="M0 0 C0.96462158 0.52243286 0.96462158 0.52243286 1.94873047 1.05541992 C47.74020493 26.57032824 83.02600187 71.66985149 97.44970703 121.94384766 C106.30777371 154.88459994 107.54696383 188.04768169 101.3125 221.5625 C101.16329102 222.40135742 101.01408203 223.24021484 100.86035156 224.10449219 C99.90301441 228.89117797 98.84017567 232.20582975 95.1875 235.6875 C91.69290538 236.62355213 89.34144952 237.0617539 85.875 235.9375 C84.1875 234.6875 84.1875 234.6875 82.1875 231.6875 C81.73278077 225.19872874 82.85711509 219.22319882 84.125 212.875 C92.47889066 170.69228003 84.49785419 127.31850856 64.1875 89.6875 C63.86136719 89.07535645 63.53523438 88.46321289 63.19921875 87.83251953 C47.68997691 58.9071656 23.16174652 33.94465159 -5.546875 18.01171875 C-6.70968994 17.3619104 -6.70968994 17.3619104 -7.89599609 16.69897461 C-9.38749978 15.87790072 -10.89018534 15.07671804 -12.40478516 14.29907227 C-16.23832446 12.19749889 -17.5659745 11.25961348 -19.359375 7.09765625 C-19.9196559 2.88105948 -19.22710546 1.1484345 -16.8125 -2.3125 C-11.55159059 -6.4849454 -5.15362645 -2.81239174 0 0 Z " fill="#00000" transform="translate(355.8125,111.3125)"/>
<path d="M0 0 C2.21054656 1.78071806 3.6345193 3.29340398 4.9375 5.8125 C5.03767754 9.31871403 3.90741142 12.12802961 2 15 C-0.54737421 16.99948862 -3.34429105 18.34064055 -6.25 19.75 C-48.20532347 41.6027828 -79.0570423 81.70779346 -93.48681641 126.33911133 C-103.30359813 158.15415154 -105.32482832 192.52316647 -97.41699219 225.00341797 C-96.68489907 228.50872097 -96.63571744 231.4178882 -97 235 C-99.04305692 238.06458538 -100.44079802 238.82153128 -103.9375 239.9375 C-107.74535372 240.0152113 -109.1216045 239.48942314 -112 237 C-115.01835936 231.15826573 -116.07480845 225.2650991 -117.125 218.8125 C-117.29676758 217.77730225 -117.46853516 216.74210449 -117.64550781 215.67553711 C-126.20683005 162.94859771 -113.67695531 107.91914294 -82.77490234 64.26953125 C-76.79144699 55.97854436 -70.06421824 48.38011653 -63 41 C-62.47954102 40.44699219 -61.95908203 39.89398438 -61.42285156 39.32421875 C-51.38736567 28.69488163 -16.12800921 -7.37280421 0 0 Z " fill="#00000" transform="translate(171,108)"/>
<path d="M0 0 C7.90800445 6.29799157 12.27625044 14.47728681 13.875 24.375 C15.06220346 36.0364017 11.41950667 45.23644767 4.3125 54.38671875 C-1.54959475 60.88293433 -10.28234698 64.96332255 -19.0078125 65.578125 C-31.01572169 65.75173333 -40.00181396 63.51851506 -49.125 55.375 C-56.7776873 46.80168867 -59.7567306 37.72944164 -59.40625 26.32421875 C-58.41731034 15.95408761 -53.8935121 7.70128927 -46.375 0.5625 C-32.65519535 -10.76553794 -14.16532148 -9.56091488 0 0 Z " fill="#00000" transform="translate(448.125,362.625)"/>
<path d="M0 0 C7.59639511 6.24919538 12.91555421 14.29264695 14.37109375 24.15625 C15.3403516 35.10409682 13.35065309 45.70948245 6.19140625 54.34375 C-1.92997097 62.43027152 -10.69907443 66.16378 -22.06640625 66.59375 C-31.77904702 66.3532247 -40.61110539 63.02675729 -47.625 56.21875 C-53.67149657 49.82832426 -57.88485117 43.084911 -58.62890625 34.15625 C-58.69207031 33.52589844 -58.75523438 32.89554687 -58.8203125 32.24609375 C-59.37427764 22.39981016 -56.10953016 12.60069673 -49.6640625 5.15625 C-36.09199872 -8.18136354 -16.00766618 -11.22677331 0 0 Z " fill="#00000" transform="translate(108.62890625,361.84375)"/>
<path d="M0 0 C9.82132473 6.39328818 16.49614631 14.02352077 19.23828125 25.45703125 C20.32414846 37.84349331 18.87500399 47.78749505 10.92578125 57.64453125 C3.97595473 65.10915973 -4.41870721 69.48254676 -14.6640625 69.9296875 C-25.77314851 70.07449868 -34.58145661 67.09420545 -42.76171875 59.45703125 C-50.78231964 50.92105039 -53.29835107 43.08441518 -53.17724609 31.47583008 C-52.77639219 20.99337765 -49.37554719 14.11357791 -42.1328125 6.62109375 C-31.22748372 -3.33203993 -13.63243503 -6.66317636 0 0 Z " fill="#00000" transform="translate(272.76171875,13.54296875)"/>
<path d="M0 0 C40.56543298 14.0630187 85.53284633 13.17802952 125.57202148 -2.43286133 C129.57879221 -3.95827148 132.83902759 -4.72127772 137.125 -4.3125 C140 -2.875 140 -2.875 142.125 -0.3125 C142.83752614 2.81916733 143.04943785 5.59879002 142.125 8.6875 C138.50010534 12.37418264 134.31359631 14.01210515 129.5 15.625 C128.38890869 16.00458862 128.38890869 16.00458862 127.25537109 16.3918457 C82.2840002 31.42464859 35.06948257 31.43399598 -9.875 16.125 C-11.12180542 15.70395996 -11.12180542 15.70395996 -12.39379883 15.27441406 C-16.82519362 13.69305217 -20.55430561 12.15913505 -23.875 8.6875 C-24.80088355 5.59395968 -24.57054955 2.82609548 -23.875 -0.3125 C-18.20545141 -7.9938239 -7.37655098 -2.67914993 0 0 Z " fill="#00000" transform="translate(196.875,468.3125)"/>
<path d="M0 0 C14.52 0 29.04 0 44 0 C44 7 44 7 42.9375 9.4375 C40.08401574 11.73869699 37.5597667 11.10288343 34 11 C34.05800781 12.03640625 34.11601562 13.0728125 34.17578125 14.140625 C34.22269038 15.51037156 34.26818932 16.88016692 34.3125 18.25 C34.35439453 18.93191406 34.39628906 19.61382812 34.43945312 20.31640625 C34.52744066 23.9414926 34.29052753 25.65768989 31.91796875 28.453125 C28.37830691 30.32957224 25.99441523 30.53443461 22 30.5 C20.205625 30.51546875 20.205625 30.51546875 18.375 30.53125 C14.31287518 29.89184146 12.66468891 29.13963346 10 26 C9.62601153 23.18760674 9.51706985 21.02407845 9.6875 18.25 C9.72133789 17.20392578 9.72133789 17.20392578 9.75585938 16.13671875 C9.81452952 14.42355065 9.90420744 12.71149377 10 11 C8.88496094 11.03222656 7.76992187 11.06445312 6.62109375 11.09765625 C3 11 3 11 1.0625 9.4375 C0 7 0 7 0 0 Z " fill="#00000" transform="translate(234,278)"/>
</svg>
